<?xml version="1.0" encoding="utf-8"?>
<!-- Generator: Adobe Illustrator 22.0.1, SVG Export Plug-In . SVG Version: 6.00 Build 0)  -->
<svg version="1.1" xmlns="http://www.w3.org/2000/svg" xmlns:xlink="http://www.w3.org/1999/xlink" x="0px" y="0px"
	 viewBox="0 0 992 346" style="enable-background:new 0 0 992 346;" xml:space="preserve">
<style type="text/css">
	.st0{display:none;}
	.st1{display:inline;fill:#0094CF;}
	.st2{opacity:0.29;fill:#FFFFFF;}
	.st3{opacity:0.7;fill:#FDFEFF;}
	.st4{fill:#F2F4F4;}
	.st5{fill:#F2F9F9;}
	.st6{fill:#F8FEFF;}
	.st7{fill:#F2F6F7;}
	.st8{fill:#F7F9F9;}
	.st9{fill:#08B1C4;}
</style>
<g id="Capa_2" class="st0">
	<rect x="-11" y="-8" class="st1" width="1061" height="375"/>
</g>
<g id="Layer_1">
	<path class="st2" d="M0.1,80.6c27,5.5,114.9,14.5,139.2,8.3s36-15.9,40.2-15.2c4.2,0.7,22.2,14.5,26.3,14.5s42.9-33.9,94.9-36.7
		s103.9,61.6,125.3,61.6c21.5,0,60.9-13.8,70.6-13.8s16.6,5.5,20.8,5.5s12.5-9.7,17.3-9.7c25.6,0,28.4,28.4,54.7,29.1
		s48.5-54,61.6-54.7c13.2-0.7,20.5-11.1,39.5-11.1c17.5,0,34.5,20.1,56.8,20.1c21.7,0,29.7,22.2,47.1,22.2c32.1,0,44.6-9.2,66.5-6.2
		c30.3,4.2,49.1,22.8,78.2,22.8c21.9,0,33.1,16.6,53.2,16.6c0,62.3,0,195.2,0,195.2H0.1V80.6z"/>
	<path class="st3" d="M199,200.8l62.3-52.2v-12.5h20.1v5.5h6.2v-11.1H314v1.2h-4.8v4.2h9.2v-8.3h-8.1v-1.8h4.6v-10.2h12.5v9.7h6.9
		v-4.2h6.9v-1.6h6.5v2.8h9v3.2h7.6v-9.2h5.5v-3.5h6.9v1.8h4.6v-7.8h11.5V117h4.2v8.8h3.9v1.6h-3.5v2.3h6.9v2.1h8.5v-3.5h9.5v5.3h5.5
		v1.2h4.2v1.4h11.5v8.1h8.8v3.9l1.5,198.3H200.3C200.3,346.5,199.4,200.5,199,200.8z"/>
	<polygon class="st4" points="89.4,130.2 467.7,193.2 466.7,198.6 87.9,135.5 	"/>
	<g>
		<path class="st5" d="M373.3,185.9h-29.1l-9.7,28.4l2.1,4.3l0.8,1.7l6.8,14h29.1l6.8-14l0.8-1.7l2.1-4.3L373.3,185.9z M356.7,229.7
			h-8.8l-4.3-9.3h13.1L356.7,229.7L356.7,229.7z M356.7,218.6h-13.9l-2-4.5l7.1-22.3h8.8V218.6z M369.6,229.7h-8.8v-9.3h13.1
			L369.6,229.7z M374.7,218.6h-13.9v-26.8h8.8l7.1,22.3L374.7,218.6z"/>
		<rect x="352" y="179.3" class="st5" width="13.5" height="7.8"/>
	</g>
	<path class="st6" d="M49,111.3h7.4v4.6h3.7v6h2.8v-9.2h5.5l3.7,3.2v3.2h5.5v-5.5h6.9v3.2h7.8v7.8h4.2v4.2h7.8v4.6h13.4v7.4h9.2v5.1
		h6.9v-4.2h4.6v8.3h7.8v4.6h12.5v7.4h10.6v2.8h-4.2v4.2h8.3v3.7H187v8.3h6.5l6,6v8.3h19.4v8.3h26.8v6.5h6v3.2h9.2v5.1h3.2v-9.2h6.5
		V222h14.8v5.5l20.8,20.8V265h58.2l37.6,37.6V346H0V139.4h21.8v-9.7h8.3v-5.5h11.5v-3.7h-4.2v-7.8h10.2
		C47.6,112.6,50.4,111.3,49,111.3z"/>
	<polygon class="st7" points="756.7,346.7 782.5,241.7 799.8,241.7 799.8,183.5 828.1,183.5 828.1,251.3 833,251.3 833,168.3 
		851,168.3 851,211.2 874.5,211.2 874.5,232 898.1,232 898.1,278.3 911.9,278.3 911.9,194.6 938.9,194.6 938.9,260.3 959,260.3 
		959,173.1 979.8,173.1 979.8,203.6 992,203.7 992.3,346.3 	"/>
	<polygon class="st8" points="440,346 453.8,104.3 495.4,32.3 495.4,244.7 503.7,244.7 503.7,44.3 526.7,105.3 535.1,295 538.5,295 
		538.5,206.3 564.1,206.3 564.1,196 591.1,196 591.1,134.3 636.1,134.3 636.1,245.8 644.4,245.8 644.4,157.9 656.9,157.9 
		656.9,148.2 666.6,148.2 666.6,141.3 674.9,141.3 674.9,157.9 678.4,157.9 678.4,207.7 702.6,207.7 702.6,269.3 708.8,269.3 
		708.8,285.3 740,285.3 740,164.1 791.2,164.1 791.2,308.1 840.9,308.1 840.9,299.5 933.7,299.5 933.7,316.6 992,316.6 992,346 	"/>
	<path class="st9" d="M81.6,346.4l-0.8-96c0,0-17.6-9.5-36.2,5.8c8.6-16.4,25.3-16.7,25.3-16.7s-20-10.8-32.3,0
		c13.8-15.3,27.8-10.6,35.2-8.2c-10.4-3.7-23.4-11.6-30.5-6.8c15.6-12.7,31.9-0.2,36.3,3.5c0,0-3.2-10.3-11.6-12
		c10.1,0.8,15.4,7.3,16.5,11.8c2.2-3.1,5.3-11.5,12.8-11.8c-7,6.7-8.7,11.8-8.7,11.8s16.6-18.3,31.9-8.7
		c-13.2-1.3-26.5,12.2-26.5,12.2s19.6-13.2,36.9,8.2c-16.6-12.4-34.4,0-34.4,0s15.8-0.1,22.7,16.7c-17.6-15.5-32.8-5.8-32.8-5.8
		v95.9h-3.8C81.6,346.3,81.6,346.4,81.6,346.4z"/>
</g>
</svg>
